# xmcd CD database file
#
# Track frame offsets:
#	150
#	115667
#	230599
#
# Disc length: 4047 seconds
#
# Revision: 1
# Processed by: cddbd v1.5.2PL0 Copyright (c) Steve Scherf et al.
# Submitted via: CDex 1.51
#
DISCID=1c0fcd03
DTITLE=Karen Kay and Neil H - Healing With Your Spirit Guide
DYEAR=2005
DGENRE=New Age
TTITLE0=Meditation (Guided Voice With Music)
TTITLE1=Instrumental (Music Only)
TTITLE2=Affirmations (Voive And Music)
EXTD=YEAR: 2005
EXTT0=
EXTT1=
EXTT2=
PLAYORDER=
